<svg width="213" height="212" viewBox="0 0 213 212" fill="none" xmlns="http://www.w3.org/2000/svg">
<path d="M17.2528 109.169C18.4632 90.7705 33.7393 77.6903 52.1772 77.6903H160.464C178.902 77.6903 194.178 90.7705 195.389 109.169L195.975 118.082C196.658 128.466 188.42 137.264 178.014 137.264H34.6275C24.2213 137.264 15.9831 128.466 16.6663 118.082L17.2528 109.169Z" fill="#FFA645"/>
<path fill-rule="evenodd" clip-rule="evenodd" d="M17.2526 109.169C17.2802 108.749 17.3151 108.332 17.3571 107.917H45.6555C47.3124 107.917 48.6555 109.261 48.6555 110.917C48.6555 112.574 47.3124 113.917 45.6555 113.917H16.9402L17.2526 109.169ZM134.64 116.603H195.878L195.483 110.603H134.64C132.983 110.603 131.64 111.946 131.64 113.603C131.64 115.26 132.983 116.603 134.64 116.603ZM142.764 125.328C144.145 125.328 145.264 126.447 145.264 127.828C145.264 129.208 144.145 130.328 142.764 130.328L66.8153 130.328C65.4346 130.328 64.3153 129.208 64.3153 127.828C64.3153 126.447 65.4346 125.328 66.8153 125.328L142.764 125.328ZM89.7971 117.401C89.7971 115.745 91.1402 114.401 92.7971 114.401H119.845C121.502 114.401 122.845 115.745 122.845 117.401C122.845 119.058 121.502 120.401 119.845 120.401H92.7971C91.1402 120.401 89.7971 119.058 89.7971 117.401ZM55.1653 125.328C56.546 125.328 57.6653 126.447 57.6653 127.828C57.6653 129.208 56.546 130.328 55.1653 130.328L32.6482 130.328C31.2675 130.328 30.1482 129.208 30.1482 127.828C30.1482 126.447 31.2675 125.328 32.6482 125.328L55.1653 125.328ZM182.422 127.828C182.422 126.447 181.302 125.328 179.922 125.328H166.255C164.874 125.328 163.755 126.447 163.755 127.828C163.755 129.208 164.874 130.328 166.255 130.328H179.922C181.302 130.328 182.422 129.208 182.422 127.828Z" fill="#ED9739"/>
<path fill-rule="evenodd" clip-rule="evenodd" d="M55.0639 103C55.0639 100.055 52.4903 97.6567 49.6911 98.5698C48.7202 98.8865 47.8319 99.2662 47.059 99.7088C43.155 101.945 38.6042 103.228 33.7453 103.228C28.7637 103.228 24.106 101.879 20.137 99.5376C18.7603 98.7253 17.9466 97.1791 18.2736 95.6144C20.6625 84.1836 38.8989 76.4664 52.66 76.4664H159.623C173.537 76.4664 191.701 84.7924 194.218 96.0866C194.58 97.7145 193.695 99.3214 192.223 100.105C188.483 102.096 184.191 103.228 179.627 103.228C174.768 103.228 170.217 101.945 166.313 99.7089C160.881 96.5976 149.745 96.5976 144.313 99.7089C140.409 101.945 135.859 103.228 131 103.228C126.141 103.228 121.59 101.945 117.686 99.7089C112.254 96.5976 101.118 96.5976 95.6862 99.7089C91.7821 101.945 87.2314 103.228 82.3725 103.228C81.7431 103.228 81.119 103.206 80.5007 103.164C77.0806 102.93 73.6664 105.354 73.6664 108.782V109.1C73.6664 114.237 69.5021 118.401 64.3652 118.401C59.2282 118.401 55.0639 114.237 55.0639 109.1V103Z" fill="#806852"/>
</svg>
