<?xml version="1.0" encoding="UTF-8"?>
<svg version="1.1" xmlns="http://www.w3.org/2000/svg" width="512" height="512">
<path d="M0 0 C147.84 0 295.68 0 448 0 C448 63.36 448 126.72 448 192 C350.32 192 252.64 192 152 192 C152 207.84 152 223.68 152 240 C257.6 240 363.2 240 472 240 C472 245.28 472 250.56 472 256 C308.32 256 144.64 256 -24 256 C-24 250.72 -24 245.44 -24 240 C-2.88 240 18.24 240 40 240 C40 224.16 40 208.32 40 192 C26.8 192 13.6 192 0 192 C0 128.64 0 65.28 0 0 Z " fill="#D9E2F1" transform="translate(32,8)"/>
<path d="M0 0 C7.22538503 4.30603754 11.61183794 10.13263188 14.4375 18 C15.58171276 27.35393933 15.36487394 36.28162098 9.4375 44 C5.84086795 47.81029336 2.20233815 50.79268077 -2.5625 53 C-1.32886719 53.03867187 -1.32886719 53.03867187 -0.0703125 53.078125 C9.93171885 53.58631135 18.41056685 55.28329662 25.90234375 62.296875 C30.12855869 66.98550023 32.95685013 71.59133507 33.4375 78 C34.0975 78 34.7575 78 35.4375 78 C35.47875 77.195625 35.52 76.39125 35.5625 75.5625 C37.39717122 68.09276718 42.09165734 62.4945371 48.38671875 58.21484375 C55.76357301 53.8449358 62.94906299 53.37525103 71.4375 53 C70.85742188 52.6596875 70.27734375 52.319375 69.6796875 51.96875 C62.45662271 47.48711244 57.05944132 42.26738255 54.4375 34 C53.47513252 24.56879867 53.45016239 15.83849513 59.4375 8 C64.70326658 2.20545351 70.33788906 -1.49851854 78.26953125 -2.46875 C87.83968152 -2.54388366 95.15435606 -1.80103194 102.4921875 4.8671875 C108.97035088 11.77543641 111.00492353 18.49788962 110.91796875 27.93139648 C110.65581704 35.40358246 108.57351314 40.67768905 103.46484375 46.08984375 C100.32089946 48.9634676 97.31038563 51.20587926 93.4375 53 C94.67113281 53.03867187 94.67113281 53.03867187 95.9296875 53.078125 C105.93171885 53.58631135 114.41056685 55.28329662 121.90234375 62.296875 C126.12855869 66.98550023 128.95685013 71.59133507 129.4375 78 C130.0975 78 130.7575 78 131.4375 78 C131.47875 77.195625 131.52 76.39125 131.5625 75.5625 C133.39717122 68.09276718 138.09165734 62.4945371 144.38671875 58.21484375 C151.76357301 53.8449358 158.94906299 53.37525103 167.4375 53 C166.85742188 52.6596875 166.27734375 52.319375 165.6796875 51.96875 C158.45662271 47.48711244 153.05944132 42.26738255 150.4375 34 C149.47513252 24.56879867 149.45016239 15.83849513 155.4375 8 C160.70326658 2.20545351 166.33788906 -1.49851854 174.26953125 -2.46875 C183.83968152 -2.54388366 191.15435606 -1.80103194 198.4921875 4.8671875 C204.97035088 11.77543641 207.00492353 18.49788962 206.91796875 27.93139648 C206.65581704 35.40358246 204.57351314 40.67768905 199.46484375 46.08984375 C196.32089946 48.9634676 193.31038563 51.20587926 189.4375 53 C190.67113281 53.03867187 190.67113281 53.03867187 191.9296875 53.078125 C201.93171885 53.58631135 210.41056685 55.28329662 217.90234375 62.296875 C222.12855869 66.98550023 224.95685013 71.59133507 225.4375 78 C226.0975 78 226.7575 78 227.4375 78 C227.499375 76.7934375 227.499375 76.7934375 227.5625 75.5625 C229.39717122 68.09276718 234.09165734 62.4945371 240.38671875 58.21484375 C247.76357301 53.8449358 254.94906299 53.37525103 263.4375 53 C262.85742188 52.6596875 262.27734375 52.319375 261.6796875 51.96875 C254.45662271 47.48711244 249.05944132 42.26738255 246.4375 34 C245.47513252 24.56879867 245.45016239 15.83849513 251.4375 8 C256.70326658 2.20545351 262.33788906 -1.49851854 270.26953125 -2.46875 C279.83968152 -2.54388366 287.15435606 -1.80103194 294.4921875 4.8671875 C300.97035088 11.77543641 303.00492353 18.49788962 302.91796875 27.93139648 C302.65581704 35.40358246 300.57351314 40.67768905 295.46484375 46.08984375 C292.32089946 48.9634676 289.31038563 51.20587926 285.4375 53 C286.67113281 53.03867187 286.67113281 53.03867187 287.9296875 53.078125 C297.93171885 53.58631135 306.41056685 55.28329662 313.90234375 62.296875 C318.12855869 66.98550023 320.95685013 71.59133507 321.4375 78 C322.0975 78 322.7575 78 323.4375 78 C323.499375 76.7934375 323.499375 76.7934375 323.5625 75.5625 C325.39717122 68.09276718 330.09165734 62.4945371 336.38671875 58.21484375 C343.76357301 53.8449358 350.94906299 53.37525103 359.4375 53 C358.85742188 52.6596875 358.27734375 52.319375 357.6796875 51.96875 C350.45662271 47.48711244 345.05944132 42.26738255 342.4375 34 C341.47513252 24.56879867 341.45016239 15.83849513 347.4375 8 C352.70326658 2.20545351 358.33788906 -1.49851854 366.26953125 -2.46875 C375.83968152 -2.54388366 383.15435606 -1.80103194 390.4921875 4.8671875 C396.97035088 11.77543641 399.00492353 18.49788962 398.91796875 27.93139648 C398.65581704 35.40358246 396.57351314 40.67768905 391.46484375 46.08984375 C388.32089946 48.9634676 385.31038563 51.20587926 381.4375 53 C382.67113281 53.03867187 382.67113281 53.03867187 383.9296875 53.078125 C393.93929036 53.58669605 402.40335779 55.2894568 409.90625 62.296875 C427.17200073 81.50061816 418.4375 110.37975652 418.4375 134 C260.0375 134 101.6375 134 -61.5625 134 C-61.5625 71.41477273 -61.5625 71.41477273 -53.265625 62.53125 C-46.64810923 56.58155692 -39.54775892 53.91746483 -30.6875 53.375 C-29.53507812 53.30023438 -28.38265625 53.22546875 -27.1953125 53.1484375 C-26.32648437 53.09945312 -25.45765625 53.05046875 -24.5625 53 C-25.14257812 52.6596875 -25.72265625 52.319375 -26.3203125 51.96875 C-33.54337729 47.48711244 -38.94055868 42.26738255 -41.5625 34 C-42.52486748 24.56879867 -42.54983761 15.83849513 -36.5625 8 C-27.26317246 -2.23315122 -12.88669427 -5.85040108 0 0 Z " fill="#749ACC" transform="translate(77.5625,370)"/>
<path d="M0 0 C147.84 0 295.68 0 448 0 C448 63.36 448 126.72 448 192 C350.32 192 252.64 192 152 192 C152 207.84 152 223.68 152 240 C257.6 240 363.2 240 472 240 C472 245.28 472 250.56 472 256 C308.32 256 144.64 256 -24 256 C-24 250.72 -24 245.44 -24 240 C-2.88 240 18.24 240 40 240 C40 224.16 40 208.32 40 192 C26.8 192 13.6 192 0 192 C0 128.64 0 65.28 0 0 Z M16 16 C16 68.8 16 121.6 16 176 C23.92 176 31.84 176 40 176 C40 170.72 40 165.44 40 160 C45.28 160 50.56 160 56 160 C56.0093457 158.89076172 56.01869141 157.78152344 56.02832031 156.63867188 C56.06842102 152.49341794 56.13423398 148.3488906 56.20751953 144.20410156 C56.23561334 142.4157856 56.25688514 140.62734814 56.27099609 138.83886719 C56.29258751 136.25653398 56.33931709 133.67564381 56.390625 131.09375 C56.39246796 129.90888 56.39246796 129.90888 56.39434814 128.70007324 C56.56741441 122.02809471 58.5444206 116.802192 62.96484375 111.7578125 C63.61582031 111.21898438 64.26679687 110.68015625 64.9375 110.125 C65.58589844 109.57070312 66.23429687 109.01640625 66.90234375 108.4453125 C72.24940936 104.76111459 77.10694968 104.69261518 83.39453125 104.69921875 C84.30071701 104.69493362 85.20690277 104.6906485 86.14054871 104.68623352 C88.05438402 104.68050197 89.96824111 104.67998129 91.88208008 104.68432617 C94.79221323 104.68747803 97.70132111 104.66404054 100.61132812 104.63867188 C102.47656123 104.63639777 104.34179704 104.6356959 106.20703125 104.63671875 C107.06875443 104.627509 107.9304776 104.61829926 108.8183136 104.60881042 C115.79179267 104.66151618 122.30079114 105.98013888 127.75 110.6875 C128.28109375 111.12449219 128.8121875 111.56148438 129.359375 112.01171875 C134.19810441 117.87579797 135.59776529 123.62965489 135.609375 131.09375 C135.62591125 131.92588013 135.64244751 132.75801025 135.65948486 133.61535645 C135.70763046 136.24364852 135.7292603 138.87136354 135.75 141.5 C135.7781878 143.29429935 135.80811912 145.0885722 135.83984375 146.8828125 C135.91337973 151.25516074 135.96315766 155.6271949 136 160 C141.28 160 146.56 160 152 160 C152 165.28 152 170.56 152 176 C244.4 176 336.8 176 432 176 C432 123.2 432 70.4 432 16 C294.72 16 157.44 16 16 16 Z " fill="#64778C" transform="translate(32,8)"/>
<path d="M0 0 C1.02183884 -0.00708481 2.04367767 -0.01416962 3.09648132 -0.02146912 C4.20672668 -0.0189917 5.31697205 -0.01651428 6.46086121 -0.01396179 C7.63867661 -0.01907272 8.816492 -0.02418365 10.02999878 -0.02944946 C13.25332575 -0.04095563 16.47649298 -0.04342079 19.69983506 -0.04088616 C22.39592256 -0.03981434 25.09198651 -0.04470543 27.78806895 -0.04949158 C34.15297605 -0.06057888 40.51782413 -0.06102913 46.88273621 -0.05497742 C53.43507472 -0.04894293 59.98719822 -0.06123692 66.53950006 -0.08254749 C72.17621117 -0.10020186 77.81285409 -0.10615866 83.44959182 -0.10290974 C86.81113799 -0.10110221 90.17253091 -0.10367936 93.5340519 -0.11762428 C97.28716627 -0.12998324 101.03978579 -0.12319919 104.79289246 -0.11161804 C106.44915146 -0.12308365 106.44915146 -0.12308365 108.13887024 -0.13478088 C116.11700436 -0.08046542 122.87077415 0.96441096 129.07096863 6.44819641 C130.006828 7.24290344 130.006828 7.24290344 130.96159363 8.05366516 C135.97680339 14.00659272 137.41519238 19.73090225 137.33854675 27.3795929 C137.34555603 28.25387939 137.35256531 29.12816589 137.35978699 30.02894592 C137.37728108 32.89689121 137.36577388 35.76383618 137.35221863 38.63179016 C137.35491625 40.63904 137.35880092 42.64628855 137.36381531 44.65353394 C137.36969895 48.85222362 137.36118483 53.05057194 137.342453 57.2492218 C137.31967906 62.61350191 137.33278411 67.97698069 137.35674286 73.34123135 C137.37124406 77.48413047 137.36657479 81.62684179 137.35623169 85.76974678 C137.35357558 87.74677184 137.35679463 89.72381431 137.3661499 91.70081902 C137.37638525 94.47180263 137.36071693 97.24151566 137.33854675 100.0124054 C137.34664368 100.81839676 137.3547406 101.62438812 137.36308289 102.45480347 C137.26000696 109.45945714 135.19204264 115.38998757 130.70768738 120.81929016 C129.6190741 121.74934875 129.6190741 121.74934875 128.50846863 122.69819641 C127.79046082 123.33628235 127.072453 123.97436829 126.33268738 124.63179016 C119.7165773 128.92248674 112.57878597 128.55748896 104.95402527 128.55122375 C103.18686409 128.56129959 103.18686409 128.56129959 101.38400269 128.57157898 C98.16906595 128.58726963 94.95428468 128.59393083 91.73931432 128.59521055 C89.72690885 128.5966369 87.71453008 128.60091553 85.70213127 128.60620499 C78.67084419 128.62467627 71.63963268 128.63287895 64.60832214 128.63130188 C58.07065695 128.63010017 51.53332171 128.65121548 44.99574 128.68278921 C39.36747924 128.70899557 33.73932602 128.71966741 28.11100477 128.71839106 C24.75607255 128.71788284 21.40166747 128.72534625 18.04675484 128.74474716 C14.3033275 128.76437147 10.5607479 128.75858234 6.81730652 128.74653625 C5.71627594 128.75777527 4.61524536 128.76901428 3.48085022 128.78059387 C-4.31286736 128.71695672 -9.72393015 127.27705462 -15.63996887 122.11225891 C-16.2716095 121.37749329 -16.90325012 120.64272766 -17.55403137 119.88569641 C-18.20114075 119.15608704 -18.84825012 118.42647766 -19.51496887 117.67475891 C-23.29255846 112.19459374 -23.4766768 106.76744213 -23.46955872 100.35298157 C-23.47627594 99.47738083 -23.48299316 98.60178009 -23.48991394 97.699646 C-23.50885129 94.81629196 -23.51281588 91.9331712 -23.51496887 89.04975891 C-23.52139938 87.03725592 -23.52812793 85.02475386 -23.53514099 83.01225281 C-23.54710282 78.79751926 -23.5508229 74.58286761 -23.54963684 70.36811829 C-23.54943363 64.97907963 -23.57674308 59.59056819 -23.61118126 54.20165443 C-23.63346518 50.04596057 -23.63747393 45.89039333 -23.63641739 41.73464584 C-23.63877081 39.74840349 -23.64757968 37.76215752 -23.66308212 35.77597427 C-23.68277374 32.99267834 -23.67689184 30.21051621 -23.66487122 27.42720032 C-23.67611023 26.61447159 -23.68734924 25.80174286 -23.69892883 24.96438599 C-23.62401925 18.10638221 -21.55617903 12.93977159 -16.99543762 7.79975891 C-15.87975403 6.85229797 -15.87975403 6.85229797 -14.74153137 5.88569641 C-14.00032043 5.23858704 -13.2591095 4.59147766 -12.49543762 3.92475891 C-8.46836823 1.03178832 -4.93027961 0.01144067 0 0 Z " fill="#64778C" transform="translate(311.1790313720703,39.73930358886719)"/>
<path d="M0 0 C147.84 0 295.68 0 448 0 C448 63.36 448 126.72 448 192 C350.32 192 252.64 192 152 192 C152 186.72 152 181.44 152 176 C244.4 176 336.8 176 432 176 C432 123.2 432 70.4 432 16 C294.72 16 157.44 16 16 16 C16 68.8 16 121.6 16 176 C23.92 176 31.84 176 40 176 C40 181.28 40 186.56 40 192 C26.8 192 13.6 192 0 192 C0 128.64 0 65.28 0 0 Z " fill="#4D6F99" transform="translate(32,8)"/>
<path d="M0 0 C7.22538503 4.30603754 11.61183794 10.13263188 14.4375 18 C15.58171276 27.35393933 15.36487394 36.28162098 9.4375 44 C5.84086795 47.81029336 2.20233815 50.79268077 -2.5625 53 C-1.32886719 53.03867187 -1.32886719 53.03867187 -0.0703125 53.078125 C9.93929036 53.58669605 18.40335779 55.2894568 25.90625 62.296875 C31.47487064 68.4905449 34.70259486 75.41403494 34.66455078 83.82177734 C34.66430908 84.95800537 34.66406738 86.0942334 34.66381836 87.26489258 C34.65358643 88.4433374 34.64335449 89.62178223 34.6328125 90.8359375 C34.63079834 91.93075439 34.62878418 93.02557129 34.62670898 94.15356445 C34.61627694 98.22741917 34.58835441 102.30121397 34.5625 106.375 C34.52125 115.49125 34.48 124.6075 34.4375 134 C2.7575 134 -28.9225 134 -61.5625 134 C-61.645 124.96625 -61.7275 115.9325 -61.8125 106.625 C-61.84891602 103.79244629 -61.88533203 100.95989258 -61.92285156 98.04150391 C-61.93454557 95.76986446 -61.9447357 93.49821656 -61.953125 91.2265625 C-61.9838208 89.48959106 -61.9838208 89.48959106 -62.01513672 87.7175293 C-62.01927728 77.98928615 -60.0421119 69.78688244 -53.265625 62.53125 C-46.64810923 56.58155692 -39.54775892 53.91746483 -30.6875 53.375 C-29.53507812 53.30023438 -28.38265625 53.22546875 -27.1953125 53.1484375 C-26.32648438 53.09945312 -25.45765625 53.05046875 -24.5625 53 C-25.14257812 52.6596875 -25.72265625 52.319375 -26.3203125 51.96875 C-33.54337729 47.48711244 -38.94055868 42.26738255 -41.5625 34 C-42.52486748 24.56879867 -42.54983761 15.83849513 -36.5625 8 C-27.26317246 -2.23315122 -12.88669427 -5.85040108 0 0 Z " fill="#4C6E99" transform="translate(461.5625,370)"/>
<path d="M0 0 C7.22538503 4.30603754 11.61183794 10.13263188 14.4375 18 C15.58171276 27.35393933 15.36487394 36.28162098 9.4375 44 C5.84086795 47.81029336 2.20233815 50.79268077 -2.5625 53 C-1.32886719 53.03867187 -1.32886719 53.03867187 -0.0703125 53.078125 C9.93929036 53.58669605 18.40335779 55.2894568 25.90625 62.296875 C31.47487064 68.4905449 34.70259486 75.41403494 34.66455078 83.82177734 C34.66430908 84.95800537 34.66406738 86.0942334 34.66381836 87.26489258 C34.65358643 88.4433374 34.64335449 89.62178223 34.6328125 90.8359375 C34.63079834 91.93075439 34.62878418 93.02557129 34.62670898 94.15356445 C34.61627694 98.22741917 34.58835441 102.30121397 34.5625 106.375 C34.52125 115.49125 34.48 124.6075 34.4375 134 C2.7575 134 -28.9225 134 -61.5625 134 C-61.645 124.96625 -61.7275 115.9325 -61.8125 106.625 C-61.84891602 103.79244629 -61.88533203 100.95989258 -61.92285156 98.04150391 C-61.93454557 95.76986446 -61.9447357 93.49821656 -61.953125 91.2265625 C-61.9838208 89.48959106 -61.9838208 89.48959106 -62.01513672 87.7175293 C-62.01927728 77.98928615 -60.0421119 69.78688244 -53.265625 62.53125 C-46.64810923 56.58155692 -39.54775892 53.91746483 -30.6875 53.375 C-29.53507812 53.30023438 -28.38265625 53.22546875 -27.1953125 53.1484375 C-26.32648438 53.09945312 -25.45765625 53.05046875 -24.5625 53 C-25.14257812 52.6596875 -25.72265625 52.319375 -26.3203125 51.96875 C-33.54337729 47.48711244 -38.94055868 42.26738255 -41.5625 34 C-42.52486748 24.56879867 -42.54983761 15.83849513 -36.5625 8 C-27.26317246 -2.23315122 -12.88669427 -5.85040108 0 0 Z " fill="#749ACC" transform="translate(365.5625,370)"/>
<path d="M0 0 C7.22538503 4.30603754 11.61183794 10.13263188 14.4375 18 C15.58171276 27.35393933 15.36487394 36.28162098 9.4375 44 C5.84086795 47.81029336 2.20233815 50.79268077 -2.5625 53 C-1.32886719 53.03867187 -1.32886719 53.03867187 -0.0703125 53.078125 C9.93929036 53.58669605 18.40335779 55.2894568 25.90625 62.296875 C31.47487064 68.4905449 34.70259486 75.41403494 34.66455078 83.82177734 C34.66430908 84.95800537 34.66406738 86.0942334 34.66381836 87.26489258 C34.65358643 88.4433374 34.64335449 89.62178223 34.6328125 90.8359375 C34.63079834 91.93075439 34.62878418 93.02557129 34.62670898 94.15356445 C34.61627694 98.22741917 34.58835441 102.30121397 34.5625 106.375 C34.52125 115.49125 34.48 124.6075 34.4375 134 C2.7575 134 -28.9225 134 -61.5625 134 C-61.645 124.96625 -61.7275 115.9325 -61.8125 106.625 C-61.84891602 103.79244629 -61.88533203 100.95989258 -61.92285156 98.04150391 C-61.93454557 95.76986446 -61.9447357 93.49821656 -61.953125 91.2265625 C-61.9838208 89.48959106 -61.9838208 89.48959106 -62.01513672 87.7175293 C-62.01927728 77.98928615 -60.0421119 69.78688244 -53.265625 62.53125 C-46.64810923 56.58155692 -39.54775892 53.91746483 -30.6875 53.375 C-29.53507812 53.30023438 -28.38265625 53.22546875 -27.1953125 53.1484375 C-26.32648438 53.09945312 -25.45765625 53.05046875 -24.5625 53 C-25.14257812 52.6596875 -25.72265625 52.319375 -26.3203125 51.96875 C-33.54337729 47.48711244 -38.94055868 42.26738255 -41.5625 34 C-42.52486748 24.56879867 -42.54983761 15.83849513 -36.5625 8 C-27.26317246 -2.23315122 -12.88669427 -5.85040108 0 0 Z " fill="#4C6E99" transform="translate(269.5625,370)"/>
<path d="M0 0 C7.22538503 4.30603754 11.61183794 10.13263188 14.4375 18 C15.58171276 27.35393933 15.36487394 36.28162098 9.4375 44 C5.84086795 47.81029336 2.20233815 50.79268077 -2.5625 53 C-1.32886719 53.03867187 -1.32886719 53.03867187 -0.0703125 53.078125 C9.93929036 53.58669605 18.40335779 55.2894568 25.90625 62.296875 C31.47487064 68.4905449 34.70259486 75.41403494 34.66455078 83.82177734 C34.66430908 84.95800537 34.66406738 86.0942334 34.66381836 87.26489258 C34.65358643 88.4433374 34.64335449 89.62178223 34.6328125 90.8359375 C34.63079834 91.93075439 34.62878418 93.02557129 34.62670898 94.15356445 C34.61627694 98.22741917 34.58835441 102.30121397 34.5625 106.375 C34.52125 115.49125 34.48 124.6075 34.4375 134 C2.7575 134 -28.9225 134 -61.5625 134 C-61.645 124.96625 -61.7275 115.9325 -61.8125 106.625 C-61.84891602 103.79244629 -61.88533203 100.95989258 -61.92285156 98.04150391 C-61.93454557 95.76986446 -61.9447357 93.49821656 -61.953125 91.2265625 C-61.9838208 89.48959106 -61.9838208 89.48959106 -62.01513672 87.7175293 C-62.01927728 77.98928615 -60.0421119 69.78688244 -53.265625 62.53125 C-46.64810923 56.58155692 -39.54775892 53.91746483 -30.6875 53.375 C-29.53507812 53.30023438 -28.38265625 53.22546875 -27.1953125 53.1484375 C-26.32648437 53.09945312 -25.45765625 53.05046875 -24.5625 53 C-25.14257812 52.6596875 -25.72265625 52.319375 -26.3203125 51.96875 C-33.54337729 47.48711244 -38.94055868 42.26738255 -41.5625 34 C-42.52486748 24.56879867 -42.54983761 15.83849513 -36.5625 8 C-27.26317246 -2.23315122 -12.88669427 -5.85040108 0 0 Z " fill="#4C6E99" transform="translate(77.5625,370)"/>
<path d="M0 0 C0.90618576 -0.00428513 1.81237152 -0.00857025 2.74601746 -0.01298523 C4.65985277 -0.01871678 6.57370986 -0.01923746 8.48754883 -0.01489258 C11.39768198 -0.01174072 14.30678986 -0.03517821 17.21679688 -0.06054688 C19.08202998 -0.06282098 20.94726579 -0.06352285 22.8125 -0.0625 C23.67422318 -0.07170975 24.53594635 -0.08091949 25.42378235 -0.09040833 C32.76636824 -0.03491285 39.19609032 1.4828226 44.85546875 6.48828125 C45.479375 7.01808594 46.10328125 7.54789062 46.74609375 8.09375 C58.63687402 22.20780641 52.60546875 36.76936403 52.60546875 56.30078125 C26.20546875 56.30078125 -0.19453125 56.30078125 -27.39453125 56.30078125 C-27.39453125 14.80883134 -27.39453125 14.80883134 -21.2109375 7.83984375 C-20.09525391 6.89238281 -20.09525391 6.89238281 -18.95703125 5.92578125 C-18.21582031 5.27867188 -17.47460938 4.6315625 -16.7109375 3.96484375 C-11.30259502 0.07959266 -6.44087199 -0.00676456 0 0 Z " fill="#4D6F99" transform="translate(115.39453125,111.69921875)"/>
<path d="M0 0 C7.22538503 4.30603754 11.61183794 10.13263188 14.4375 18 C15.58377924 27.37083278 15.35041227 36.25894094 9.4375 44 C4.17173342 49.79454649 -1.46288906 53.49851854 -9.39453125 54.46875 C-18.96468152 54.54388366 -26.27935606 53.80103194 -33.6171875 47.1328125 C-40.09535088 40.22456359 -42.12992353 33.50211038 -42.04296875 24.06860352 C-41.74395838 15.54582427 -38.83865527 9.83070397 -32.6875 4.0625 C-23.90268227 -3.41745987 -10.46364874 -4.75036814 0 0 Z " fill="#D9B991" transform="translate(461.5625,370)"/>
<path d="M0 0 C7.22538503 4.30603754 11.61183794 10.13263188 14.4375 18 C15.58377924 27.37083278 15.35041227 36.25894094 9.4375 44 C4.17173342 49.79454649 -1.46288906 53.49851854 -9.39453125 54.46875 C-18.96468152 54.54388366 -26.27935606 53.80103194 -33.6171875 47.1328125 C-40.09535088 40.22456359 -42.12992353 33.50211038 -42.04296875 24.06860352 C-41.74395838 15.54582427 -38.83865527 9.83070397 -32.6875 4.0625 C-23.90268227 -3.41745987 -10.46364874 -4.75036814 0 0 Z " fill="#D9B991" transform="translate(365.5625,370)"/>
<path d="M0 0 C7.22538503 4.30603754 11.61183794 10.13263188 14.4375 18 C15.58377924 27.37083278 15.35041227 36.25894094 9.4375 44 C4.17173342 49.79454649 -1.46288906 53.49851854 -9.39453125 54.46875 C-18.96468152 54.54388366 -26.27935606 53.80103194 -33.6171875 47.1328125 C-40.09535088 40.22456359 -42.12992353 33.50211038 -42.04296875 24.06860352 C-41.74395838 15.54582427 -38.83865527 9.83070397 -32.6875 4.0625 C-23.90268227 -3.41745987 -10.46364874 -4.75036814 0 0 Z " fill="#D9B991" transform="translate(269.5625,370)"/>
<path d="M0 0 C7.22538503 4.30603754 11.61183794 10.13263188 14.4375 18 C15.58377924 27.37083278 15.35041227 36.25894094 9.4375 44 C4.17173342 49.79454649 -1.46288906 53.49851854 -9.39453125 54.46875 C-18.96468152 54.54388366 -26.27935606 53.80103194 -33.6171875 47.1328125 C-40.09535088 40.22456359 -42.12992353 33.50211038 -42.04296875 24.06860352 C-41.74395838 15.54582427 -38.83865527 9.83070397 -32.6875 4.0625 C-23.90268227 -3.41745987 -10.46364874 -4.75036814 0 0 Z " fill="#D9B991" transform="translate(173.5625,370)"/>
<path d="M0 0 C7.22538503 4.30603754 11.61183794 10.13263188 14.4375 18 C15.58377924 27.37083278 15.35041227 36.25894094 9.4375 44 C4.17173342 49.79454649 -1.46288906 53.49851854 -9.39453125 54.46875 C-18.96468152 54.54388366 -26.27935606 53.80103194 -33.6171875 47.1328125 C-40.09535088 40.22456359 -42.12992353 33.50211038 -42.04296875 24.06860352 C-41.74395838 15.54582427 -38.83865527 9.83070397 -32.6875 4.0625 C-23.90268227 -3.41745987 -10.46364874 -4.75036814 0 0 Z " fill="#D9B992" transform="translate(77.5625,370)"/>
<path d="M0 0 C7.22538503 4.30603754 11.61183794 10.13263188 14.4375 18 C15.58377924 27.37083278 15.35041227 36.25894094 9.4375 44 C4.17173342 49.79454649 -1.46288906 53.49851854 -9.39453125 54.46875 C-18.96468152 54.54388366 -26.27935606 53.80103194 -33.6171875 47.1328125 C-40.09535088 40.22456359 -42.12992353 33.50211038 -42.04296875 24.06860352 C-41.74395838 15.54582427 -38.83865527 9.83070397 -32.6875 4.0625 C-23.90268227 -3.41745987 -10.46364874 -4.75036814 0 0 Z " fill="#D9B991" transform="translate(413.5625,314)"/>
<path d="M0 0 C7.22538503 4.30603754 11.61183794 10.13263188 14.4375 18 C15.58377924 27.37083278 15.35041227 36.25894094 9.4375 44 C4.17173342 49.79454649 -1.46288906 53.49851854 -9.39453125 54.46875 C-18.96468152 54.54388366 -26.27935606 53.80103194 -33.6171875 47.1328125 C-40.09535088 40.22456359 -42.12992353 33.50211038 -42.04296875 24.06860352 C-41.74395838 15.54582427 -38.83865527 9.83070397 -32.6875 4.0625 C-23.90268227 -3.41745987 -10.46364874 -4.75036814 0 0 Z " fill="#D9B991" transform="translate(317.5625,314)"/>
<path d="M0 0 C7.22538503 4.30603754 11.61183794 10.13263188 14.4375 18 C15.58377924 27.37083278 15.35041227 36.25894094 9.4375 44 C4.17173342 49.79454649 -1.46288906 53.49851854 -9.39453125 54.46875 C-18.96468152 54.54388366 -26.27935606 53.80103194 -33.6171875 47.1328125 C-40.09535088 40.22456359 -42.12992353 33.50211038 -42.04296875 24.06860352 C-41.74395838 15.54582427 -38.83865527 9.83070397 -32.6875 4.0625 C-23.90268227 -3.41745987 -10.46364874 -4.75036814 0 0 Z " fill="#D9B991" transform="translate(221.5625,314)"/>
<path d="M0 0 C7.22538503 4.30603754 11.61183794 10.13263188 14.4375 18 C15.58377924 27.37083278 15.35041227 36.25894094 9.4375 44 C4.17173342 49.79454649 -1.46288906 53.49851854 -9.39453125 54.46875 C-18.96468152 54.54388366 -26.27935606 53.80103194 -33.6171875 47.1328125 C-40.09535088 40.22456359 -42.12992353 33.50211038 -42.04296875 24.06860352 C-41.74395838 15.54582427 -38.83865527 9.83070397 -32.6875 4.0625 C-23.90268227 -3.41745987 -10.46364874 -4.75036814 0 0 Z " fill="#D9B991" transform="translate(125.5625,314)"/>
<path d="M0 0 C5.54772645 3.80646925 10.10735833 9.01188853 12.140625 15.46875 C13.09069505 22.75998523 12.33076924 29.32918036 8.140625 35.46875 C2.74775959 41.5070935 -2.06551662 44.87792892 -10.234375 45.7109375 C-16.32393348 46.02655486 -20.93744972 45.16019396 -25.859375 41.46875 C-32.49382404 35.26953964 -35.80740954 30.23583396 -36.234375 21.09375 C-36.06149574 14.36965668 -34.40452533 10.14210753 -29.765625 5.26953125 C-21.0360648 -2.83441047 -11.14510397 -5.61264228 0 0 Z " fill="#D9BA93" transform="translate(139.859375,66.53125)"/>
<path d="M0 0 C26.4 0 52.8 0 80 0 C80 5.28 80 10.56 80 16 C53.6 16 27.2 16 0 16 C0 10.72 0 5.44 0 0 Z " fill="#E6E6E6" transform="translate(344,128)"/>
<path d="M0 0 C26.4 0 52.8 0 80 0 C80 5.28 80 10.56 80 16 C53.6 16 27.2 16 0 16 C0 10.72 0 5.44 0 0 Z " fill="#E6E6E6" transform="translate(344,96)"/>
<path d="M0 0 C26.4 0 52.8 0 80 0 C80 5.28 80 10.56 80 16 C53.6 16 27.2 16 0 16 C0 10.72 0 5.44 0 0 Z " fill="#E6E6E6" transform="translate(344,64)"/>
<path d="M0 0 C5.28 0 10.56 0 16 0 C16 5.28 16 10.56 16 16 C10.72 16 5.44 16 0 16 C0 10.72 0 5.44 0 0 Z " fill="#E6E6E6" transform="translate(312,128)"/>
<path d="M0 0 C5.28 0 10.56 0 16 0 C16 5.28 16 10.56 16 16 C10.72 16 5.44 16 0 16 C0 10.72 0 5.44 0 0 Z " fill="#E6E6E6" transform="translate(312,96)"/>
<path d="M0 0 C5.28 0 10.56 0 16 0 C16 5.28 16 10.56 16 16 C10.72 16 5.44 16 0 16 C0 10.72 0 5.44 0 0 Z " fill="#E6E6E6" transform="translate(312,64)"/>
</svg>
