<svg width="158" height="55" viewBox="0 0 158 55" fill="none" xmlns="http://www.w3.org/2000/svg">
<mask id="path-1-inside-1_187_862" fill="white">
<path d="M127.786 11.2812C136.741 11.2812 144 18.5406 144 27.4951C144 36.4494 136.74 43.708 127.786 43.708H16.2139C7.2595 43.708 0.000187615 36.4494 0 27.4951C0 18.5406 7.25939 11.2812 16.2139 11.2812H127.786Z"/>
</mask>
<path d="M127.786 11.2812C136.741 11.2812 144 18.5406 144 27.4951C144 36.4494 136.74 43.708 127.786 43.708H16.2139C7.2595 43.708 0.000187615 36.4494 0 27.4951C0 18.5406 7.25939 11.2812 16.2139 11.2812H127.786Z" fill="url(#paint0_radial_187_862)"/>
<path d="M144 27.4951L144.995 27.4951V27.4951H144ZM0 27.4951H-0.995398V27.4951L0 27.4951ZM127.786 11.2812V12.2766C136.191 12.2766 143.005 19.0904 143.005 27.4951H144H144.995C144.995 17.9909 137.29 10.2859 127.786 10.2859V11.2812ZM144 27.4951L143.005 27.4951C143.004 35.8996 136.191 42.7126 127.786 42.7126V43.708V44.7034C137.29 44.7034 144.995 36.9992 144.995 27.4951L144 27.4951ZM127.786 43.708V42.7126H16.2139V43.708V44.7034H127.786V43.708ZM16.2139 43.708V42.7126C7.80919 42.7126 0.995574 35.8996 0.995398 27.4951L0 27.4951L-0.995398 27.4951C-0.995199 36.9992 6.70982 44.7034 16.2139 44.7034V43.708ZM0 27.4951H0.995398C0.995398 19.0904 7.80913 12.2766 16.2139 12.2766V11.2812V10.2859C6.70964 10.2859 -0.995398 17.9909 -0.995398 27.4951H0ZM16.2139 11.2812V12.2766H127.786V11.2812V10.2859H16.2139V11.2812Z" fill="url(#paint1_radial_187_862)" fill-opacity="0.6" mask="url(#path-1-inside-1_187_862)"/>
<mask id="path-3-outside-2_187_862" maskUnits="userSpaceOnUse" x="24.0959" y="21.7622" width="60" height="14" fill="black">
<rect fill="white" x="24.0959" y="21.7622" width="60" height="14"/>
<path d="M28.9124 31.9572C28.2104 31.9572 27.5843 31.8402 27.0339 31.6062C26.4879 31.3679 26.0243 31.0342 25.6429 30.6052C25.2659 30.1762 24.9778 29.6627 24.7784 29.0647C24.5834 28.4667 24.4859 27.8059 24.4859 27.0822C24.4859 26.3585 24.5834 25.6977 24.7784 25.0997C24.9778 24.5017 25.2659 23.9882 25.6429 23.5592C26.0243 23.1302 26.4879 22.7987 27.0339 22.5647C27.5843 22.3264 28.2104 22.2072 28.9124 22.2072C29.4541 22.2072 29.9481 22.2787 30.3944 22.4217C30.8451 22.5604 31.2459 22.7619 31.5969 23.0262C31.9479 23.2905 32.2469 23.609 32.4939 23.9817C32.7409 24.35 32.9338 24.766 33.0724 25.2297L31.6944 25.6002C31.5081 24.9459 31.1831 24.4324 30.7194 24.0597C30.2558 23.687 29.6534 23.5007 28.9124 23.5007C28.4271 23.5007 27.9981 23.5874 27.6254 23.7607C27.2528 23.9297 26.9386 24.1724 26.6829 24.4887C26.4316 24.8007 26.2409 25.1777 26.1109 25.6197C25.9853 26.0574 25.9224 26.5449 25.9224 27.0822C25.9224 27.6195 25.9853 28.1092 26.1109 28.5512C26.2366 28.9889 26.4229 29.3659 26.6699 29.6822C26.9213 29.9942 27.2333 30.2369 27.6059 30.4102C27.9786 30.5792 28.4141 30.6637 28.9124 30.6637C29.6534 30.6637 30.2558 30.4774 30.7194 30.1047C31.1831 29.732 31.5081 29.2185 31.6944 28.5642L33.0724 28.9347C32.9338 29.394 32.7409 29.81 32.4939 30.1827C32.2469 30.5554 31.9479 30.8739 31.5969 31.1382C31.2459 31.4025 30.8451 31.6062 30.3944 31.7492C29.9481 31.8879 29.4541 31.9572 28.9124 31.9572ZM34.1055 31.7622V24.7422H35.464L37.7065 29.1037L39.9425 24.7422H41.3075V31.7622H39.9425V27.3487L38.2525 30.6572H37.154L35.464 27.3487V31.7622H34.1055ZM45.7842 31.9572C45.2599 31.9572 44.7854 31.8662 44.3607 31.6842C43.9404 31.5022 43.5807 31.2487 43.2817 30.9237C42.9827 30.5944 42.7509 30.2022 42.5862 29.7472C42.4259 29.2922 42.3457 28.7917 42.3457 28.2457C42.3457 27.6997 42.4259 27.1992 42.5862 26.7442C42.7509 26.2892 42.9827 25.8992 43.2817 25.5742C43.585 25.2492 43.9469 24.9979 44.3672 24.8202C44.7919 24.6382 45.2642 24.5472 45.7842 24.5472C46.3085 24.5472 46.783 24.6382 47.2077 24.8202C47.6324 24.9979 47.9942 25.2514 48.2932 25.5807C48.5922 25.9057 48.8219 26.2957 48.9822 26.7507C49.1469 27.2014 49.2292 27.6997 49.2292 28.2457C49.2292 28.796 49.1469 29.2987 48.9822 29.7537C48.8219 30.2087 48.5922 30.6009 48.2932 30.9302C47.9942 31.2552 47.6324 31.5087 47.2077 31.6907C46.783 31.8684 46.3085 31.9572 45.7842 31.9572ZM45.7842 30.6767C46.1092 30.6767 46.3952 30.6204 46.6422 30.5077C46.8935 30.395 47.1037 30.2347 47.2727 30.0267C47.4417 29.8144 47.5695 29.5587 47.6562 29.2597C47.7429 28.9564 47.7862 28.6184 47.7862 28.2457C47.7862 27.8687 47.7429 27.5307 47.6562 27.2317C47.5695 26.9327 47.4417 26.6792 47.2727 26.4712C47.1037 26.2632 46.8935 26.105 46.6422 25.9967C46.3952 25.884 46.1092 25.8277 45.7842 25.8277C45.4549 25.8277 45.1645 25.884 44.9132 25.9967C44.6662 26.1094 44.4582 26.2697 44.2892 26.4777C44.1245 26.6857 43.9989 26.9392 43.9122 27.2382C43.8299 27.5372 43.7887 27.873 43.7887 28.2457C43.7887 28.6227 43.832 28.9629 43.9187 29.2662C44.0054 29.5652 44.1332 29.8187 44.3022 30.0267C44.4712 30.2347 44.6792 30.395 44.9262 30.5077C45.1775 30.6204 45.4635 30.6767 45.7842 30.6767ZM51.8832 31.7622V26.0162H49.5302V24.7422H55.5947V26.0162H53.2417V31.7622H51.8832ZM56.4411 34.8822V24.7422H57.7996V25.7627C58.0206 25.3814 58.3131 25.0845 58.6771 24.8722C59.0454 24.6555 59.5047 24.5472 60.0551 24.5472C60.5274 24.5472 60.9586 24.6382 61.3486 24.8202C61.7429 25.0022 62.0787 25.2579 62.3561 25.5872C62.6377 25.9122 62.8544 26.3022 63.0061 26.7572C63.1621 27.2079 63.2401 27.704 63.2401 28.2457C63.2401 28.796 63.1621 29.2987 63.0061 29.7537C62.8501 30.2087 62.6312 30.6009 62.3496 30.9302C62.0722 31.2552 61.7386 31.5087 61.3486 31.6907C60.9586 31.8684 60.5274 31.9572 60.0551 31.9572C59.5047 31.9572 59.0454 31.851 58.6771 31.6387C58.3087 31.422 58.0162 31.123 57.7996 30.7417V34.8822H56.4411ZM59.7951 30.6767C60.1287 30.6767 60.4212 30.6182 60.6726 30.5012C60.9239 30.3799 61.1319 30.213 61.2966 30.0007C61.4656 29.784 61.5912 29.5284 61.6736 29.2337C61.7559 28.9347 61.7971 28.6054 61.7971 28.2457C61.7971 27.8774 61.7537 27.5459 61.6671 27.2512C61.5847 26.9522 61.4591 26.6987 61.2901 26.4907C61.1254 26.2784 60.9174 26.1159 60.6661 26.0032C60.4191 25.8862 60.1287 25.8277 59.7951 25.8277C59.4527 25.8277 59.1559 25.8862 58.9046 26.0032C58.6576 26.1202 58.4517 26.287 58.2871 26.5037C58.1224 26.716 57.9989 26.9695 57.9166 27.2642C57.8386 27.5589 57.7996 27.886 57.7996 28.2457C57.7996 28.614 57.8407 28.9499 57.9231 29.2532C58.0097 29.5522 58.1354 29.8079 58.3001 30.0202C58.4691 30.2282 58.6771 30.3907 58.9241 30.5077C59.1754 30.6204 59.4657 30.6767 59.7951 30.6767ZM67.3391 30.6897C67.7855 30.6897 68.1538 30.5965 68.4441 30.4102C68.7388 30.2195 68.9728 29.94 69.1461 29.5717L70.4851 29.9812C70.2078 30.6139 69.7961 31.1014 69.2501 31.4437C68.7085 31.786 68.0715 31.9572 67.3391 31.9572C66.8191 31.9572 66.3468 31.8684 65.9221 31.6907C65.5018 31.5087 65.14 31.2552 64.8366 30.9302C64.5333 30.6052 64.2993 30.2152 64.1346 29.7602C63.97 29.3052 63.8876 28.8025 63.8876 28.2522C63.8876 27.6932 63.97 27.1862 64.1346 26.7312C64.2993 26.2762 64.5333 25.8862 64.8366 25.5612C65.14 25.2362 65.5018 24.987 65.9221 24.8137C66.3468 24.636 66.8148 24.5472 67.3261 24.5472C67.8721 24.5472 68.3553 24.6425 68.7756 24.8332C69.196 25.0239 69.5448 25.2969 69.8221 25.6522C70.1038 26.0032 70.3075 26.4322 70.4331 26.9392C70.5631 27.4419 70.6108 28.0074 70.5761 28.6357H65.3501C65.4108 29.29 65.6145 29.797 65.9611 30.1567C66.3078 30.512 66.7671 30.6897 67.3391 30.6897ZM69.1786 27.5762C69.131 26.9955 68.9468 26.5492 68.6261 26.2372C68.3055 25.9252 67.8721 25.7692 67.3261 25.7692C66.7845 25.7692 66.3468 25.9252 66.0131 26.2372C65.6838 26.5492 65.4736 26.9955 65.3826 27.5762H69.1786ZM73.4125 31.7622V26.0162H71.0595V24.7422H77.124V26.0162H74.771V31.7622H73.4125ZM81.1423 31.7622H77.9638V24.7422H79.3288V27.2317H81.1423C81.5713 27.2317 81.9461 27.2902 82.2668 27.4072C82.5875 27.5242 82.8518 27.6867 83.0598 27.8947C83.2721 28.0984 83.4303 28.3389 83.5343 28.6162C83.6383 28.8892 83.6903 29.1839 83.6903 29.5002C83.6903 29.8165 83.6383 30.1134 83.5343 30.3907C83.4303 30.6637 83.2721 30.902 83.0598 31.1057C82.8518 31.3094 82.5875 31.4697 82.2668 31.5867C81.9461 31.7037 81.5713 31.7622 81.1423 31.7622ZM80.9538 30.6377C81.1921 30.6377 81.3958 30.6095 81.5648 30.5532C81.7381 30.4925 81.8811 30.4124 81.9938 30.3127C82.1065 30.213 82.1888 30.0939 82.2408 29.9552C82.2971 29.8122 82.3253 29.6605 82.3253 29.5002C82.3253 29.3355 82.2971 29.1839 82.2408 29.0452C82.1888 28.9065 82.1065 28.7874 81.9938 28.6877C81.8811 28.5837 81.7381 28.5035 81.5648 28.4472C81.3958 28.3865 81.1921 28.3562 80.9538 28.3562H79.3288V30.6377H80.9538Z"/>
<defs>
<radialGradient id="paint0_radial_187_862" cx="0" cy="0" r="1" gradientTransform="matrix(104.093 -0.279045 0.659469 305.578 39.9072 27.7737)" gradientUnits="userSpaceOnUse">
<stop offset="0.759615" stop-color="#FF4F24"/>
</radialGradient>
<radialGradient id="paint1_radial_187_862" cx="0" cy="0" r="1" gradientTransform="matrix(-55.3307 4.49518 -21.3431 -9.67989 67.7977 11.2813)" gradientUnits="userSpaceOnUse">
<stop stop-color="white" stop-opacity="0.6"/>
<stop offset="0.677885" stop-color="white" stop-opacity="0.3"/>
<stop offset="1" stop-color="white" stop-opacity="0.15"/>
</radialGradient>
</defs>
</svg>
