<?xml version="1.0" encoding="UTF-8"?>
<svg width="212px" height="212px" viewBox="0 0 212 212" version="1.1" xmlns="http://www.w3.org/2000/svg" xmlns:xlink="http://www.w3.org/1999/xlink">
    <!-- Generator: Sketch 63.1 (92452) - https://sketch.com -->
    <title>croissant</title>
    <desc>Created with Sketch.</desc>
    <g id="croissant" stroke="none" stroke-width="1" fill="none" fill-rule="evenodd">
        <path d="M52.1683257,136.035409 C44.9690679,144.412644 32.3418256,145.367583 23.9645907,138.168326 C15.5873557,130.969068 14.6324166,118.341826 21.8316743,109.964591 C43.431425,84.830585 71.9898238,72 106,72 C140.010176,72 168.568575,84.830585 190.168326,109.964591 C197.367583,118.341826 196.412644,130.969068 188.035409,138.168326 C179.658174,145.367583 167.030932,144.412644 159.831674,136.035409 C145.910239,119.836082 128.468638,112 106,112 C83.5313623,112 66.0897611,119.836082 52.1683257,136.035409 Z" id="Path" fill="#E5A259" fill-rule="nonzero"></path>
        <path d="M46.334224,71.8072045 C67.4570047,64.6024015 87.229279,61 105.651047,61 C124.072814,61 143.845089,64.6024014 164.967869,71.8072043 C176.990292,75.9079508 183.412078,88.9783623 179.311331,101.000785 C179.087026,101.658394 178.833038,102.305501 178.550147,102.940115 L167.216652,128.364792 C162.681257,138.53914 151.506696,144.0009 140.692453,141.328955 C129.011984,138.442985 117.331515,137 105.651047,137 C93.9705786,137 82.2901103,138.442985 70.6096421,141.328954 C59.7953983,144.000901 48.6208375,138.53914 44.0854429,128.364792 L32.7519454,102.940117 C27.5801355,91.3380844 32.792861,77.7401982 44.3948937,72.5683882 C45.0295079,72.2854978 45.676615,72.0315094 46.334224,71.8072045 Z" id="Rectangle" fill="#F1B16B" fill-rule="nonzero"></path>
        <path d="M70.398297,55.2684258 C82.1192604,51.0894753 93.8402238,49 105.561187,49 C117.28215,49 129.003112,51.0894749 140.724074,55.2684248 C145.977153,57.1413356 148.849562,62.7941705 147.265291,68.1413868 L127.017134,136.482773 C125.696146,140.941358 121.599868,144 116.949708,144 L94.1726664,144 C89.522506,144 85.4262281,140.941358 84.1052404,136.482773 L63.8570847,68.1413846 C62.2728145,62.7941709 65.1452214,57.1413387 70.398297,55.2684258 Z" id="Rectangle" fill="#E5A259" fill-rule="nonzero"></path>
    </g>
</svg>
